HIERARCHY
ROOT Hips
{
	OFFSET 0.000000 88.474243 0.000000
	CHANNELS 6 Xposition Yposition Zposition Zrotation Yrotation Xrotation 
	JOINT Hips_Spine
	{
		OFFSET 0.000000 0.000000 0.000000
		CHANNELS 3 Zrotation Yrotation Xrotation
		JOINT Spine
		{
			OFFSET 0.005100 8.711998 -0.691000
			CHANNELS 3 Zrotation Yrotation Xrotation
			JOINT Spine1
			{
				OFFSET -0.009200 8.660301 -1.275000
				CHANNELS 3 Zrotation Yrotation Xrotation
				JOINT Spine2
				{
					OFFSET 0.006300 9.852501 -1.857000
					CHANNELS 3 Zrotation Yrotation Xrotation
					JOINT Spine2_Neck
					{
						OFFSET 0.000000 0.000000 0.000000
						CHANNELS 3 Zrotation Yrotation Xrotation
						JOINT Neck
						{
							OFFSET 0.016300 11.420799 -0.263300
							CHANNELS 3 Zrotation Yrotation Xrotation
							End Site #name: Head
							{
								OFFSET -0.019200 9.262405 2.362500
							}
						}
					}
					JOINT Spine2_LeftShoulder
					{
						OFFSET 0.000000 0.000000 0.000000
						CHANNELS 3 Zrotation Yrotation Xrotation
						JOINT LeftShoulder
						{
							OFFSET 5.616900 6.732201 -0.345700
							CHANNELS 3 Zrotation Yrotation Xrotation
							JOINT LeftArm
							{
								OFFSET 10.664888 -0.183372 -2.440700
								CHANNELS 3 Zrotation Yrotation Xrotation
								JOINT LeftForeArm
								{
									OFFSET 27.459126 0.000000 0.000000
									CHANNELS 3 Zrotation Yrotation Xrotation
									End Site #name: LeftHand
									{
										OFFSET 21.306858 0.000000 0.000000
									}
								}
							}
						}
					}
					JOINT Spine2_RightShoulder
					{
						OFFSET 0.000000 0.000000 0.000000
						CHANNELS 3 Zrotation Yrotation Xrotation
						JOINT RightShoulder
						{
							OFFSET -5.580300 6.737503 -0.344400
							CHANNELS 3 Zrotation Yrotation Xrotation
							JOINT RightArm
							{
								OFFSET -10.679335 -0.188484 -2.383900
								CHANNELS 3 Zrotation Yrotation Xrotation
								JOINT RightForeArm
								{
									OFFSET -27.503529 0.000000 0.000000
									CHANNELS 3 Zrotation Yrotation Xrotation
									End Site #name: RightHand
									{
										OFFSET -21.306808 0.000000 0.000000
									}
								}
							}
						}
					}
				}
			}
		}
	}
	JOINT Hips_LeftUpLeg
	{
		OFFSET 0.000000 0.000000 0.000000
		CHANNELS 3 Zrotation Yrotation Xrotation
		JOINT LeftUpLeg
		{
			OFFSET 6.857700 -6.739601 0.312100
			CHANNELS 3 Zrotation Yrotation Xrotation
			JOINT LeftLeg
			{
				OFFSET -0.367590 -34.731552 -4.572400
				CHANNELS 3 Zrotation Yrotation Xrotation
				End Site #name: LeftFoot
				{
					OFFSET 0.367590 -34.656704 -6.067400
				}
			}
		}
	}
	JOINT Hips_RightUpLeg
	{
		OFFSET 0.000000 0.000000 0.000000
		CHANNELS 3 Zrotation Yrotation Xrotation
		JOINT RightUpLeg
		{
			OFFSET -6.876100 -6.733299 0.301000
			CHANNELS 3 Zrotation Yrotation Xrotation
			JOINT RightLeg
			{
				OFFSET 0.347353 -34.795158 -4.515900
				CHANNELS 3 Zrotation Yrotation Xrotation
				End Site #name: RightFoot
				{
					OFFSET -0.347353 -34.589367 -6.070300
				}
			}
		}
	}
}
MOTION
Frames: 11
Frame Time: 0.041667
0.000000 -0.000000 0.000000 -3.787152 -2.051686 -10.966621 0.000000 0.000000 0.000000 4.078880 -0.272820 14.143099 1.672010 -0.051983 5.342930 0.000000 0.000000 0.000000 1.672729 -0.028307 5.343251 -0.411067 -0.773359 0.503434 1.672729 -0.028307 5.343251 -15.538159 -5.251377 1.954796 -58.172273 -24.613417 16.883406 0.000014 -51.737150 -0.000021 1.672729 -0.028307 5.343251 11.658406 0.554793 0.763883 61.298897 34.154857 24.679075 -0.000007 42.654340 -0.000009 0.000000 0.000000 0.000000 7.184649 7.573656 -64.978969 1.973779 -4.258893 60.559820 0.000000 0.000000 0.000000 -1.351209 -8.038009 -63.813823 0.275407 -1.642819 63.414442 
0.002993 0.001030 0.006501 -3.787825 -2.047114 -10.990745 0.000000 0.000000 0.000000 4.057761 -0.258120 14.124804 1.664620 -0.047014 5.337984 0.000000 0.000000 0.000000 1.665306 -0.023284 5.338292 -0.372669 -0.769551 0.546202 1.665306 -0.023284 5.338292 -15.529213 -5.243783 1.952391 -58.279661 -24.609686 16.827056 -0.000029 -51.620674 -0.000021 1.665306 -0.023284 5.338292 11.645555 0.560265 0.764419 61.354523 34.143856 24.680298 -0.000024 42.532083 -0.000001 0.000000 0.000000 0.000000 7.175667 7.594653 -64.958330 1.950468 -4.258530 60.576776 0.000000 0.000000 0.000000 -1.354104 -8.033828 -63.785801 0.277500 -1.630630 63.427493 
0.010669 0.006775 0.007980 -3.801933 -2.048464 -11.008866 0.000000 0.000000 0.000000 4.027963 -0.236417 14.113361 1.653341 -0.039619 5.336313 0.000000 0.000000 0.000000 1.653975 -0.015859 5.336619 -0.344192 -0.766305 0.574158 1.653975 -0.015859 5.336619 -15.513644 -5.234989 1.949189 -58.333174 -24.631965 16.834555 -0.000042 -51.534358 0.000006 1.653975 -0.015859 5.336619 11.628400 0.567313 0.765103 61.411228 34.155826 24.695836 0.000045 42.372301 0.000012 0.000000 0.000000 0.000000 7.175421 7.616196 -64.936836 1.934856 -4.259463 60.576394 0.000000 0.000000 0.000000 -1.346013 -8.018920 -63.750798 0.278752 -1.619053 63.413883 
0.021379 0.017823 0.002592 -3.824835 -2.058890 -11.020553 0.000000 0.000000 0.000000 3.997024 -0.209796 14.110159 1.640383 -0.030298 5.338427 0.000000 0.000000 0.000000 1.640952 -0.006614 5.338704 -0.322073 -0.762421 0.592671 1.640952 -0.006614 5.338704 -15.488966 -5.225653 1.945129 -58.340925 -24.687029 16.903123 0.000018 -51.454697 -0.000005 1.640952 -0.006614 5.338704 11.610741 0.576115 0.766105 61.455460 34.196577 24.730552 -0.000007 42.189146 0.000000 0.000000 0.000000 0.000000 7.183871 7.634992 -64.911397 1.932342 -4.261378 60.552116 0.000000 0.000000 0.000000 -1.328541 -7.987994 -63.709539 0.277153 -1.607206 63.369943 
0.030044 0.027436 -0.008075 -3.855064 -2.074244 -11.025811 0.000000 0.000000 0.000000 3.983438 -0.187333 14.116561 1.632092 -0.022066 5.342943 0.000000 0.000000 0.000000 1.632598 0.001395 5.343206 -0.296227 -0.757501 0.608525 1.632598 0.001395 5.343206 -15.458610 -5.218072 1.941018 -58.335532 -24.755204 16.974515 -0.000010 -51.380002 0.000002 1.632598 0.001395 5.343206 11.607943 0.580863 0.766886 61.460607 34.249576 24.764267 0.000017 42.058573 0.000017 0.000000 0.000000 0.000000 7.202942 7.648989 -64.893177 1.935241 -4.268970 60.521245 0.000000 0.000000 0.000000 -1.301528 -7.949431 -63.675316 0.271473 -1.604369 63.319111 
0.036811 0.032440 -0.020502 -3.884704 -2.086213 -11.023473 0.000000 0.000000 0.000000 3.976088 -0.172209 14.128866 1.626192 -0.016544 5.348348 0.000000 0.000000 0.000000 1.626651 0.006719 5.348596 -0.267341 -0.754647 0.623420 1.626651 0.006719 5.348596 -15.432363 -5.212444 1.937671 -58.332523 -24.805668 17.003690 -0.000011 -51.348471 -0.000014 1.626651 0.006719 5.348596 11.610898 0.580451 0.766919 61.456585 34.303224 24.785878 -0.000001 41.974876 -0.000004 0.000000 0.000000 0.000000 7.222080 7.661035 -64.890491 1.935399 -4.276446 60.495869 0.000000 0.000000 0.000000 -1.273098 -7.923409 -63.658297 0.264475 -1.610314 63.278078 
0.041896 0.032959 -0.031840 -3.905681 -2.091414 -11.016323 0.000000 0.000000 0.000000 3.967263 -0.163812 14.145088 1.620920 -0.013631 5.354598 0.000000 0.000000 0.000000 1.621358 0.009532 5.354840 -0.240817 -0.754327 0.643024 1.621358 0.009532 5.354840 -15.416838 -5.208876 1.935649 -58.331325 -24.828971 16.992056 0.000010 -51.371236 -0.000030 1.621358 0.009532 5.354840 11.612329 0.577649 0.766452 61.460179 34.343547 24.784088 0.000015 41.936262 0.000010 0.000000 0.000000 0.000000 7.233474 7.670901 -64.900207 1.930954 -4.280188 60.480103 0.000000 0.000000 0.000000 -1.252274 -7.914940 -63.658117 0.257494 -1.618619 63.253119 
0.044749 0.030594 -0.039718 -3.919106 -2.089497 -11.009238 0.000000 0.000000 0.000000 3.955556 -0.159936 14.162913 1.615617 -0.012512 5.361401 0.000000 0.000000 0.000000 1.616047 0.010626 5.361648 -0.218597 -0.755357 0.670126 1.616047 0.010626 5.361648 -15.409320 -5.206450 1.934508 -58.330701 -24.830477 16.960547 0.000024 -51.431854 -0.000025 1.616047 0.010626 5.361648 11.613466 0.574247 0.765853 61.471361 34.363311 24.756909 0.000037 41.934790 0.000013 0.000000 0.000000 0.000000 7.238777 7.676968 -64.914936 1.922415 -4.282210 60.475017 0.000000 0.000000 0.000000 -1.239795 -7.916507 -63.665952 0.251644 -1.624194 63.244006 
0.044890 0.027581 -0.043354 -3.930519 -2.081536 -11.004387 0.000000 0.000000 0.000000 3.941622 -0.158474 14.178579 1.610041 -0.012432 5.367545 0.000000 0.000000 0.000000 1.610475 0.010718 5.367794 -0.199525 -0.756871 0.704954 1.610475 0.010718 5.367794 -15.400597 -5.203433 1.933144 -58.332201 -24.821805 16.931383 0.000025 -51.503373 0.000002 1.610475 0.010718 5.367794 11.615688 0.570611 0.765253 61.488172 34.369456 24.719168 -0.000015 41.945189 -0.000012 0.000000 0.000000 0.000000 7.243458 7.677927 -64.928898 1.911799 -4.285694 60.477206 0.000000 0.000000 0.000000 -1.230974 -7.918906 -63.673181 0.249201 -1.625313 63.245028 
0.042521 0.025269 -0.043316 -3.943346 -2.071150 -10.999659 0.000000 0.000000 0.000000 3.926578 -0.157179 14.187881 1.604277 -0.012622 5.371587 0.000000 0.000000 0.000000 1.604716 0.010566 5.371836 -0.186185 -0.759041 0.744181 1.604716 0.010566 5.371836 -15.386499 -5.198727 1.930976 -58.336866 -24.810509 16.911732 -0.000040 -51.566139 -0.000000 1.604716 0.010566 5.371836 11.613908 0.567024 0.764511 61.514945 34.374277 24.692139 -0.000005 41.939885 0.000001 0.000000 0.000000 0.000000 7.251315 7.675308 -64.941587 1.901793 -4.291369 60.482684 0.000000 0.000000 0.000000 -1.221300 -7.917046 -63.677899 0.255783 -1.621098 63.250437 
0.038394 0.024979 -0.040466 -3.956979 -2.062533 -10.989332 0.000000 0.000000 0.000000 3.911755 -0.153729 14.188468 1.598919 -0.012088 5.372742 0.000000 0.000000 0.000000 1.599359 0.011164 5.372983 -0.183544 -0.762236 0.781203 1.599359 0.011164 5.372983 -15.369644 -5.192106 1.928166 -58.347549 -24.798273 16.895699 -0.000045 -51.611498 0.000004 1.599359 0.011164 5.372983 11.603034 0.564406 0.763628 61.553018 34.378367 24.681892 -0.000000 41.917434 -0.000007 0.000000 0.000000 0.000000 7.262432 7.671595 -64.955657 1.895907 -4.297340 60.486338 0.000000 0.000000 0.000000 -1.209967 -7.910971 -63.684263 0.273695 -1.612902 63.253831 
